HIERARCHY
ROOT Hips
{
 OFFSET 0.000000 0.000000 0.000000
 CHANNELS 6 Xposition Yposition Zposition Yrotation Xrotation Zrotation
 JOINT Chest
 {
  OFFSET 0.000000 9.857222 0.000240
  CHANNELS 3 Yrotation Xrotation Zrotation
  JOINT Chest2
  {
   OFFSET 0.000000 10.876940 -0.000436
   CHANNELS 3 Yrotation Xrotation Zrotation
   JOINT Chest3
   {
    OFFSET 0.000000 9.827798 0.000000
    CHANNELS 3 Yrotation Xrotation Zrotation
    JOINT Chest4
    {
     OFFSET 0.000000 9.827798 0.000000
     CHANNELS 3 Yrotation Xrotation Zrotation
     JOINT Neck
     {
      OFFSET 0.000000 13.831992 0.000000
      CHANNELS 3 Yrotation Xrotation Zrotation
      JOINT Head
      {
       OFFSET 0.000000 9.147643 -0.001036
       CHANNELS 3 Yrotation Xrotation Zrotation
       End Site
       {
        OFFSET 0.000000 17.515799 -0.000541
       }
      }
     }
     JOINT RightCollar
     {
      OFFSET -3.001579 7.717577 0.000000
      CHANNELS 3 Yrotation Xrotation Zrotation
      JOINT RightShoulder
      {
       OFFSET -14.002642 0.000000 0.000000
       CHANNELS 3 Yrotation Xrotation Zrotation
       JOINT RightElbow
       {
        OFFSET -30.053852 0.000000 0.000000
        CHANNELS 3 Yrotation Xrotation Zrotation
        JOINT RightWrist
        {
         OFFSET -24.564923 0.000000 -0.000000
         CHANNELS 3 Yrotation Xrotation Zrotation
         End Site
         {
          OFFSET -18.334355 0.000000 0.000000
         }
        }
       }
      }
     }
     JOINT LeftCollar
     {
      OFFSET 3.001579 7.717577 0.000000
      CHANNELS 3 Yrotation Xrotation Zrotation
      JOINT LeftShoulder
      {
       OFFSET 14.002642 0.000000 0.000000
       CHANNELS 3 Yrotation Xrotation Zrotation
       JOINT LeftElbow
       {
        OFFSET 30.053852 0.000000 0.000000
        CHANNELS 3 Yrotation Xrotation Zrotation
        JOINT LeftWrist
        {
         OFFSET 24.564923 0.000000 -0.000000
         CHANNELS 3 Yrotation Xrotation Zrotation
         End Site
         {
          OFFSET 18.334355 0.000000 0.000000
         }
        }
       }
      }
     }
    }
   }
  }
 }
 JOINT RightHip
 {
  OFFSET -8.003235 -0.001175 -0.000120
  CHANNELS 3 Yrotation Xrotation Zrotation
  JOINT RightKnee
  {
   OFFSET 0.000000 -41.759727 0.000113
   CHANNELS 3 Yrotation Xrotation Zrotation
   JOINT RightAnkle
   {
    OFFSET 0.000000 -40.728748 0.000159
    CHANNELS 3 Yrotation Xrotation Zrotation
    JOINT RightToe
    {
     OFFSET 0.000000 -6.515296 14.732841
     CHANNELS 3 Yrotation Xrotation Zrotation
     End Site
     {
      OFFSET 0.000000 -1.502839 6.412115
     }
    }
   }
  }
 }
 JOINT LeftHip
 {
  OFFSET 8.003235 -0.001175 -0.000120
  CHANNELS 3 Yrotation Xrotation Zrotation
  JOINT LeftKnee
  {
   OFFSET 0.000000 -41.759727 0.000113
   CHANNELS 3 Yrotation Xrotation Zrotation
   JOINT LeftAnkle
   {
    OFFSET 0.000000 -40.728748 0.000159
    CHANNELS 3 Yrotation Xrotation Zrotation
    JOINT LeftToe
    {
     OFFSET 0.000000 -6.515296 14.732841
     CHANNELS 3 Yrotation Xrotation Zrotation
     End Site
     {
      OFFSET 0.000000 -1.502839 6.412115
     }
    }
   }
  }
 }
}
MOTION
Frames: 15
Frame Time: 0.016667
5.673004 79.571993 -14.974643 -23.046435 12.628563 4.305445 -3.395725 1.319159 -0.559691 -1.006643 0.490100 -0.249504 -1.006643 0.490100 -0.249504 -0.754778 0.367987 -0.186320 -5.659159 20.130472 0.388067 -10.428405 1.415580 2.419498 12.632479 28.547639 13.190017 68.012534 0.701463 50.976107 37.312063 18.074365 -2.594777 -7.862278 9.013557 -14.174574 -43.863399 32.377358 -27.658920 -61.715501 -7.563582 -23.488980 -38.159013 14.972104 -1.035981 4.292842 6.471628 10.854387 -4.611606 -62.858560 9.032804 -36.714997 44.738894 -33.832079 5.718243 -2.595915 -1.799949 -0.901135 -0.235392 -0.281253 12.347188 13.812247 3.645943 -5.506538 8.225750 -9.635494 -8.279476 -27.838793 2.577135 0.665210 -0.986030 0.503355
5.623735 79.653815 -14.986320 -22.909095 12.723666 4.314142 -3.425795 1.255648 -0.465716 -1.011399 0.457271 -0.245155 -1.011399 0.457271 -0.245155 -0.758362 0.343360 -0.183109 -5.662378 20.102377 0.379594 -10.433137 1.362990 2.407301 12.606327 28.612599 13.135748 68.154763 0.707143 50.929115 37.080063 18.102061 -2.438237 -7.852686 9.046760 -14.043139 -43.773706 32.385508 -27.586063 -61.921102 -7.232863 -23.592647 -38.074340 14.637414 -0.956649 4.314743 6.377814 10.691835 -4.660888 -62.779771 9.049734 -36.451911 44.574115 -33.590499 5.695351 -2.608371 -1.802214 -0.890693 -0.145112 -0.299602 12.383144 13.682856 3.721462 -5.734941 8.152632 -9.636931 -8.073962 -27.613859 2.274591 0.623963 -1.069226 0.605959
5.583412 79.725887 -15.008196 -22.739437 12.892886 4.361081 -3.477666 1.148866 -0.398678 -1.017159 0.422113 -0.235691 -1.017159 0.422113 -0.235691 -0.762703 0.316978 -0.176065 -5.670680 20.065273 0.371282 -10.447632 1.294079 2.397639 12.584604 28.678948 13.057812 68.204888 0.650505 50.864860 36.808177 18.236620 -2.248413 -7.907343 9.158002 -13.872169 -43.669238 32.404780 -27.516221 -62.099649 -6.977791 -23.625752 -38.022410 14.348814 -0.971640 4.361861 6.330464 10.452104 -4.724684 -62.783891 9.001213 -36.190872 44.425462 -33.307795 5.657150 -2.635283 -1.814872 -0.898363 -0.042445 -0.330130 12.314348 13.475655 3.722324 -5.897190 8.088486 -9.647021 -7.911179 -27.408563 2.016023 0.556685 -1.123320 0.678187
5.534911 79.781483 -15.027926 -22.597093 13.020142 4.374416 -3.488118 1.089439 -0.318354 -1.025762 0.396225 -0.222508 -1.025762 0.396225 -0.222508 -0.769174 0.297543 -0.166216 -5.680446 20.025254 0.366834 -10.466121 1.220218 2.395681 12.568029 28.718438 12.984987 68.265338 0.615647 50.840663 36.442504 18.493783 -2.152655 -7.979187 9.295419 -13.661426 -43.561894 32.424179 -27.434812 -62.262753 -6.774758 -23.652899 -37.978115 14.114135 -0.987868 4.397557 6.278980 10.193526 -4.963783 -62.720597 9.108057 -35.918507 44.258447 -33.016633 5.692026 -2.689678 -1.849937 -0.894569 0.082549 -0.360353 12.222265 13.302549 3.743874 -5.997805 8.067602 -9.624723 -7.756596 -27.286608 1.745557 0.498264 -1.133778 0.722244
5.482327 79.819949 -15.038400 -22.490924 13.123258 4.370758 -3.489302 1.052784 -0.243308 -1.025141 0.381816 -0.205963 -1.025141 0.381816 -0.205963 -0.768724 0.286709 -0.153831 -5.690845 19.990184 0.365408 -10.486436 1.155844 2.399023 12.569791 28.753023 12.923976 68.389319 0.646253 50.830738 36.003122 18.801484 -2.168965 -8.064125 9.396010 -13.486055 -43.456201 32.431181 -27.355871 -62.433259 -6.634003 -23.716754 -37.914504 13.896479 -0.982791 4.411114 6.202652 9.934959 -5.286030 -62.637686 9.285780 -35.749251 44.090156 -32.767951 5.777886 -2.773086 -1.926164 -0.877867 0.206754 -0.387808 12.153925 13.171610 3.777515 -6.110099 8.035820 -9.609603 -7.600897 -27.201252 1.527194 0.430177 -1.116789 0.724585
5.429039 79.840378 -15.044402 -22.387356 13.254631 4.365440 -3.506380 1.004344 -0.178359 -1.015353 0.366588 -0.189043 -1.015353 0.366588 -0.189043 -0.761399 0.275256 -0.141173 -5.705951 19.960452 0.368071 -10.516307 1.102065 2.410795 12.575752 28.782682 12.883114 68.584395 0.741666 50.840169 35.530388 19.022366 -2.348902 -8.161543 9.535433 -13.323207 -43.355652 32.415464 -27.273479 -62.571887 -6.569795 -23.809468 -37.824781 13.662927 -0.947880 4.434904 6.211853 9.687764 -5.589599 -62.617849 9.409633 -35.702988 43.975094 -32.555202 5.934454 -2.890289 -2.032414 -0.845079 0.324768 -0.408577 12.075416 13.028248 3.800404 -6.195722 7.991590 -9.599088 -7.449928 -27.147736 1.354678 0.358571 -1.069065 0.688440
5.401701 79.841126 -15.034904 -22.323131 13.379717 4.409728 -3.503322 0.944806 -0.172475 -1.001451 0.358651 -0.178498 -1.001451 0.358651 -0.178498 -0.750981 0.269282 -0.133286 -5.724581 19.939354 0.375248 -10.553543 1.064946 2.431156 12.578236 28.801598 12.863788 68.794879 0.879426 50.866630 35.040800 19.220451 -2.646931 -8.288477 9.738313 -13.185938 -43.255966 32.395347 -27.188251 -62.660273 -6.605997 -23.897151 -37.742486 13.489663 -0.990087 4.462579 6.071485 9.268198 -5.692416 -62.666709 9.311560 -35.826436 43.907943 -32.464135 6.116647 -2.987907 -2.010853 -0.935671 0.400226 -0.510134 12.046901 12.922245 3.782659 -6.307048 7.932573 -9.612764 -7.374904 -27.098801 1.242536 0.366375 -1.023529 0.650544
5.397806 79.820886 -15.027818 -22.306080 13.516296 4.477802 -3.473651 0.855308 -0.196394 -0.984498 0.358543 -0.175678 -0.984498 0.358543 -0.175678 -0.738268 0.269191 -0.131181 -5.746766 19.927813 0.387674 -10.598370 1.046277 2.461368 12.577121 28.789187 12.861062 68.924885 1.014112 50.892776 34.637770 19.502186 -2.960350 -8.330515 9.892042 -13.101661 -43.179247 32.392440 -27.116752 -62.659069 -6.774853 -23.947975 -37.733235 13.384878 -1.212358 4.304012 5.676414 8.841445 -5.562272 -62.833153 9.049317 -36.056153 43.925425 -32.505926 6.231137 -3.008468 -1.890093 -0.987658 0.399669 -0.626190 12.065367 12.813732 3.734003 -6.415689 7.883846 -9.643863 -7.445436 -27.084232 1.260778 0.389131 -0.951996 0.583356
5.412296 79.781574 -15.024032 -22.357069 13.637845 4.540729 -3.414757 0.770841 -0.239177 -0.958598 0.365330 -0.176118 -0.958598 0.365330 -0.176118 -0.718841 0.274274 -0.131516 -5.772868 19.926008 0.408849 -10.652499 1.046747 2.507886 12.567175 28.739296 12.876804 68.919964 1.096919 50.905337 34.331241 19.822119 -3.146242 -8.354310 10.256109 -13.073438 -43.124294 32.406095 -27.059275 -62.579781 -7.081506 -23.969172 -38.073850 12.792928 -1.415145 4.451037 5.957200 9.049176 -5.334555 -63.027230 8.752687 -36.273993 43.987197 -32.590079 6.398458 -3.015215 -1.692577 -1.080827 0.404427 -0.761952 12.094778 12.723011 3.661700 -6.480669 7.864600 -9.689904 -7.549737 -27.129053 1.347690 0.454552 -0.853791 0.509052
5.421308 79.723536 -15.024361 -22.463333 13.731451 4.552255 -3.349582 0.728963 -0.260542 -0.922602 0.371791 -0.173850 -0.922602 0.371791 -0.173850 -0.691844 0.279107 -0.129826 -5.800934 19.932227 0.436668 -10.711803 1.062871 2.566411 12.577692 28.657675 12.916452 68.790557 1.141910 50.903741 34.096769 20.527183 -3.275044 -8.341567 10.261814 -13.055559 -43.058672 32.363613 -26.990636 -62.497910 -7.311940 -24.040121 -38.231462 12.568926 -1.306760 4.393687 6.056366 9.205925 -5.297256 -63.199197 8.697310 -36.462495 44.077302 -32.685089 6.459433 -3.052572 -1.560168 -1.124003 0.422260 -0.850170 12.138974 12.657187 3.633302 -6.477864 7.873815 -9.762484 -7.596833 -27.251136 1.467867 0.511656 -0.718177 0.410845
5.428486 79.650412 -15.023786 -22.595506 13.758553 4.551445 -3.296137 0.741903 -0.299198 -0.884365 0.386755 -0.169164 -0.884365 0.386755 -0.169164 -0.663164 0.290312 -0.126313 -5.827133 19.943814 0.472760 -10.769925 1.089617 2.638969 12.636807 28.576878 12.985139 68.552197 1.171136 50.860889 34.034642 20.990964 -3.398125 -8.344736 10.554650 -13.040745 -43.029920 32.321430 -26.958850 -62.403986 -7.393781 -24.095663 -38.503577 12.316240 -1.278169 4.454683 6.016839 9.403552 -5.215190 -63.352427 8.645841 -36.617297 44.269347 -32.805334 6.508885 -3.099758 -1.457462 -1.118525 0.423404 -0.882948 12.106025 12.652827 3.579630 -6.336006 7.931505 -9.794615 -7.716984 -27.434446 1.674454 0.533949 -0.560769 0.274635
5.430391 79.564404 -15.016924 -22.769727 13.755894 4.535804 -3.216125 0.780433 -0.348751 -0.851111 0.409947 -0.167762 -0.851111 0.409947 -0.167762 -0.638218 0.307695 -0.125250 -5.849573 19.963007 0.516684 -10.823144 1.130962 2.723983 12.699934 28.501600 13.051340 68.290202 1.178497 50.794604 34.083700 21.593354 -3.462250 -8.387870 10.557000 -13.144787 -43.025129 32.290305 -26.954141 -62.297420 -7.436071 -24.166101 -38.747405 11.855256 -0.950580 4.473523 6.113995 9.409849 -5.023678 -63.525790 8.558858 -36.829894 44.537833 -32.980324 6.417371 -3.162411 -1.393880 -1.072891 0.396186 -0.867188 12.053210 12.682033 3.511594 -6.258816 8.002358 -9.820676 -7.758452 -27.660941 1.956438 0.559418 -0.400220 0.121654
5.442309 79.469875 -15.002906 -22.958217 13.795604 4.544520 -3.118744 0.782365 -0.433838 -0.821001 0.431598 -0.175422 -0.821001 0.431598 -0.175422 -0.615624 0.323935 -0.130987 -5.870596 19.993324 0.574673 -10.877403 1.194199 2.833180 12.726294 28.434096 13.101646 68.067149 1.158947 50.750800 34.255465 21.962395 -3.507062 -8.431842 10.504461 -13.472822 -43.018386 32.249177 -26.945535 -62.174689 -7.477666 -24.281378 -38.954944 11.619487 -0.539883 4.497415 6.247098 9.434537 -4.745580 -63.774293 8.403319 -37.173403 44.777479 -33.247531 6.462542 -3.245798 -1.366585 -1.026396 0.382542 -0.829148 12.018987 12.702123 3.400449 -6.245564 8.025426 -9.865780 -7.682336 -27.880575 2.277754 0.578691 -0.242842 -0.038735
5.452540 79.360841 -14.980231 -23.263340 13.792428 4.539400 -2.917311 0.794543 -0.542568 -0.785631 0.461662 -0.194354 -0.785631 0.461662 -0.194354 -0.589073 0.346497 -0.145171 -5.896967 20.035700 0.644833 -10.944346 1.281429 2.965017 12.698856 28.354871 13.145302 67.891479 1.127555 50.762463 34.505040 22.138672 -3.649115 -8.474354 10.439920 -13.804524 -42.985702 32.200199 -26.907290 -62.038623 -7.536893 -24.382752 -39.114384 11.734229 -0.229825 4.507089 6.329590 9.507567 -4.301159 -64.005484 8.189617 -37.687869 44.989045 -33.643412 6.556101 -3.360527 -1.369973 -0.973704 0.363492 -0.766893 12.126158 12.796563 3.307325 -6.248571 8.051705 -9.911145 -7.701056 -28.120939 2.662412 0.624049 -0.093102 -0.186990
5.444827 79.238212 -14.943000 -23.532810 13.728953 4.571338 -2.740537 0.818989 -0.677399 -0.748250 0.494878 -0.225256 -0.748250 0.494878 -0.225256 -0.561001 0.371435 -0.168335 -5.929504 20.087632 0.723400 -11.024407 1.387771 3.113061 12.586353 28.267340 13.166878 67.783698 1.089506 50.857090 34.783275 22.238576 -3.861595 -8.531653 10.360345 -14.094071 -42.927804 32.157934 -26.854990 -61.824383 -7.690422 -24.406424 -39.342726 12.076413 -0.184183 4.515038 6.376999 9.565409 -3.768458 -64.219856 7.877139 -38.438950 45.191461 -34.230186 6.717020 -3.542485 -1.417451 -0.911856 0.338339 -0.671284 12.289606 12.971634 3.244191 -6.227854 8.067259 -9.992184 -7.829580 -28.338031 3.109539 0.654984 0.038326 -0.335598
